<svg xmlns="http://www.w3.org/2000/svg" viewBox="0 0 64 64" role="img" aria-label="AI intelligent programming platform">
  <defs>
    <linearGradient id="bolt" x1="16" y1="6" x2="46" y2="58" gradientUnits="userSpaceOnUse">
      <stop offset="0" stop-color="#38bdf8"/>
      <stop offset="0.48" stop-color="#7c3aed"/>
      <stop offset="1" stop-color="#facc15"/>
    </linearGradient>
    <linearGradient id="panel" x1="12" y1="12" x2="54" y2="54" gradientUnits="userSpaceOnUse">
      <stop offset="0" stop-color="#ecfeff"/>
      <stop offset="1" stop-color="#eef2ff"/>
    </linearGradient>
  </defs>
  <rect width="64" height="64" rx="18" fill="#0f172a"/>
  <path d="M14 19.5c0-4.1 3.4-7.5 7.5-7.5h21c4.1 0 7.5 3.4 7.5 7.5v25c0 4.1-3.4 7.5-7.5 7.5h-21c-4.1 0-7.5-3.4-7.5-7.5v-25Z" fill="url(#panel)" opacity=".96"/>
  <path d="M34.6 7 20 33.2h12.1L28.9 57 46 27.5H33.6L34.6 7Z" fill="url(#bolt)"/>
  <path d="M20.5 23.5h7.8M20.5 31.5h5.4M39 40.5h5.5" stroke="#0f172a" stroke-opacity=".45" stroke-width="3" stroke-linecap="round"/>
</svg>
